<svg xmlns="http://www.w3.org/2000/svg" fill="none" viewBox="0 0 24 24" id="Exposure--Streamline-Outlined-Material" height="24" width="24">
  <desc>
    Exposure Streamline Icon: https://streamlinehq.com
  </desc>
  <path fill="#ffffff" d="M4.5 21c-0.4 0 -0.75 -0.15 -1.05 -0.45 -0.3 -0.3 -0.45 -0.65 -0.45 -1.05V4.5c0 -0.4 0.15 -0.75 0.45 -1.05C3.75 3.15 4.1 3 4.5 3h15c0.4 0 0.75 0.15 1.05 0.45 0.3 0.3 0.45 0.65 0.45 1.05v15c0 0.4 -0.15 0.75 -0.45 1.05 -0.3 0.3 -0.65 0.45 -1.05 0.45H4.5Zm0 -1.5h15V4.5L4.5 19.5Zm10.35 -1.2v-2.2h-2.2v-1.25h2.2v-2.2h1.25v2.2h2.2v1.25h-2.2v2.2h-1.25ZM5.7 8.05h5.05v-1.25H5.7v1.25Z" stroke-width="0.5"></path>
</svg>